<svg width="36" height="36" viewBox="0 0 36 36" fill="none" xmlns="http://www.w3.org/2000/svg">
<g clip-path="url(#clip0_103_570)">
<path d="M21.7453 17.6786C21.7453 13.2634 22.5571 9.39437 23.905 6.63379C15.9823 11.1862 9.03491 11.477 5.54918 11.687C3.58922 11.805 1.78447 13.0806 0.846111 15.0779C0.0812617 16.7061 0.0857791 18.6254 0.824783 20.2651C1.75604 22.3319 3.57129 23.6872 5.5491 23.6701C5.87658 23.6673 6.26863 23.6723 6.70467 23.687C5.99855 26.8648 7.81877 30.2267 11.0925 31.6454C12.093 32.079 13.1478 32.2969 14.1936 32.2969C15.0086 32.2969 15.8181 32.1645 16.5915 31.8974C18.3799 31.2808 19.7624 30.0232 20.4841 28.3577C20.6521 27.9703 20.766 27.5646 20.853 27.1528C21.8552 27.6159 22.8758 28.1373 23.9079 28.729C22.5584 25.9681 21.7453 22.0971 21.7453 17.6786ZM19.1462 27.778C18.589 29.0633 17.5131 30.0366 16.1159 30.5188C14.6957 31.0087 13.1171 30.9332 11.6723 30.3066C8.9633 29.1329 7.48078 26.34 8.18201 23.7745C10.9657 24.0004 14.9866 24.678 19.4915 26.5538C19.43 26.9748 19.3159 27.3864 19.1462 27.778Z" fill="white"/>
<path d="M29.2376 3.70312C26.8259 3.70312 24.7508 6.9881 23.7847 11.7245C27.0054 11.8012 29.603 14.44 29.603 17.6787C29.603 20.9174 27.0052 23.5555 23.7847 23.6322C24.7506 28.3688 26.8258 31.6539 29.2376 31.6539C32.5701 31.6539 35.2716 25.3968 35.2716 17.6785C35.2716 9.96018 32.5701 3.70312 29.2376 3.70312Z" fill="white"/>
</g>
<defs>
<clipPath id="clip0_103_570">
<rect width="35" height="35" fill="white" transform="translate(0.271484 0.5)"/>
</clipPath>
</defs>
</svg>
