<svg width="36" height="36" viewBox="0 0 36 36" fill="none" xmlns="http://www.w3.org/2000/svg">
<g clip-path="url(#clip0_103_614)">
<path d="M23.5165 1.84725C23.5165 1.10384 24.2514 0.5 25.16 0.5C26.0686 0.5 26.8035 1.10384 26.8035 1.84725V7.74894C26.8035 8.49235 26.0686 9.09619 25.16 9.09619C24.2514 9.09619 23.5165 8.49235 23.5165 7.74894V1.84725ZM19.1016 30.0683C19.0048 30.0683 18.9279 29.661 18.9279 29.1568C18.9279 28.6527 19.0048 28.2454 19.1016 28.2454H23.5991C23.696 28.2454 23.7729 28.6527 23.7729 29.1568C23.7729 29.661 23.696 30.0683 23.5991 30.0683H19.1016ZM4.78605 19.6093C4.68921 19.6093 4.6123 19.202 4.6123 18.6978C4.6123 18.1937 4.68921 17.7864 4.78605 17.7864H9.28353C9.38037 17.7864 9.45728 18.1937 9.45728 18.6978C9.45728 19.202 9.38037 19.6093 9.28353 19.6093H4.78605ZM11.9438 19.6093C11.847 19.6093 11.7701 19.202 11.7701 18.6978C11.7701 18.1937 11.847 17.7864 11.9438 17.7864H16.4413C16.5382 17.7864 16.6151 18.1937 16.6151 18.6978C16.6151 19.202 16.5382 19.6093 16.4413 19.6093H11.9438ZM19.1016 19.6093C19.0048 19.6093 18.9279 19.202 18.9279 18.6978C18.9279 18.1937 19.0048 17.7864 19.1016 17.7864H23.5991C23.696 17.7864 23.7729 18.1937 23.7729 18.6978C23.7729 19.202 23.696 19.6093 23.5991 19.6093H19.1016ZM26.2623 19.6093C26.1654 19.6093 26.0885 19.202 26.0885 18.6978C26.0885 18.1937 26.1654 17.7864 26.2623 17.7864H30.7598C30.8566 17.7864 30.9335 18.1937 30.9335 18.6978C30.9335 19.202 30.8566 19.6093 30.7598 19.6093H26.2623ZM4.78605 24.8388C4.68921 24.8388 4.6123 24.4315 4.6123 23.9273C4.6123 23.4232 4.68921 23.0159 4.78605 23.0159H9.28353C9.38037 23.0159 9.45728 23.4232 9.45728 23.9273C9.45728 24.4315 9.38037 24.8388 9.28353 24.8388H4.78605ZM11.9438 24.8388C11.847 24.8388 11.7701 24.4315 11.7701 23.9273C11.7701 23.4232 11.847 23.0159 11.9438 23.0159H16.4413C16.5382 23.0159 16.6151 23.4232 16.6151 23.9273C16.6151 24.4315 16.5382 24.8388 16.4413 24.8388H11.9438ZM19.1016 24.8388C19.0048 24.8388 18.9279 24.4315 18.9279 23.9273C18.9279 23.4232 19.0048 23.0159 19.1016 23.0159H23.5991C23.696 23.0159 23.7729 23.4232 23.7729 23.9273C23.7729 24.4315 23.696 24.8388 23.5991 24.8388H19.1016ZM26.2623 24.8388C26.1654 24.8388 26.0885 24.4315 26.0885 23.9273C26.0885 23.4232 26.1654 23.0159 26.2623 23.0159H30.7598C30.8566 23.0159 30.9335 23.4232 30.9335 23.9273C30.9335 24.4315 30.8566 24.8388 30.7598 24.8388H26.2623ZM4.78605 30.0683C4.68921 30.0683 4.6123 29.661 4.6123 29.1568C4.6123 28.6527 4.68921 28.2454 4.78605 28.2454H9.28353C9.38037 28.2454 9.45728 28.6527 9.45728 29.1568C9.45728 29.661 9.38037 30.0683 9.28353 30.0683H4.78605ZM11.9438 30.0683C11.847 30.0683 11.7701 29.661 11.7701 29.1568C11.7701 28.6527 11.847 28.2454 11.9438 28.2454H16.4413C16.5382 28.2454 16.6151 28.6527 16.6151 29.1568C16.6151 29.661 16.5382 30.0683 16.4413 30.0683H11.9438ZM8.70532 1.84725C8.70532 1.10384 9.44019 0.5 10.3488 0.5C11.2574 0.5 11.9923 1.10384 11.9923 1.84725V7.74894C11.9923 8.49235 11.2574 9.09619 10.3488 9.09619C9.44019 9.09619 8.70532 8.49235 8.70532 7.74894V1.84725ZM2.0944 13.4085H33.4457V6.61532C33.4457 6.38745 33.3517 6.17952 33.2008 6.02572C33.0498 5.87476 32.8419 5.78076 32.6112 5.78076H29.609C29.1049 5.78076 28.6976 5.37345 28.6976 4.8693C28.6976 4.36515 29.1049 3.95784 29.609 3.95784H32.614C33.346 3.95784 34.0097 4.25692 34.491 4.73828C34.9724 5.21965 35.2715 5.8833 35.2715 6.61532V14.3228V32.8454C35.2715 33.5774 34.9724 34.241 34.491 34.7224C34.0097 35.2038 33.346 35.5028 32.614 35.5028H2.92896C2.19694 35.5028 1.53328 35.2038 1.05192 34.7224C0.570557 34.2382 0.271484 33.5745 0.271484 32.8425V14.32V6.61532C0.271484 5.8833 0.570557 5.21965 1.05192 4.73828C1.53328 4.25692 2.19694 3.95784 2.92896 3.95784H6.139C6.64315 3.95784 7.05046 4.36515 7.05046 4.8693C7.05046 5.37345 6.64315 5.78076 6.139 5.78076H2.92896C2.70109 5.78076 2.49316 5.87476 2.33936 6.02572C2.1884 6.17668 2.0944 6.3846 2.0944 6.61532V13.4085ZM33.4486 15.2343H2.0944V32.8425C2.0944 33.0704 2.1884 33.2783 2.33936 33.4321C2.49032 33.5831 2.69824 33.6771 2.92896 33.6771H32.614C32.8419 33.6771 33.0498 33.5831 33.2036 33.4321C33.3546 33.2812 33.4486 33.0732 33.4486 32.8425V15.2343ZM14.6355 5.78076C14.1313 5.78076 13.724 5.37345 13.724 4.8693C13.724 4.36515 14.1313 3.95784 14.6355 3.95784H20.7565C21.2607 3.95784 21.668 4.36515 21.668 4.8693C21.668 5.37345 21.2607 5.78076 20.7565 5.78076H14.6355Z" fill="white"/>
</g>
<defs>
<clipPath id="clip0_103_614">
<rect width="35" height="35" fill="white" transform="translate(0.271484 0.5)"/>
</clipPath>
</defs>
</svg>
