<svg width="25" height="25" viewBox="0 0 25 25" fill="none" xmlns="http://www.w3.org/2000/svg">
<mask id="mask0_73_470" style="mask-type:alpha" maskUnits="userSpaceOnUse" x="2" y="2" width="22" height="22">
<rect x="2.30371" y="2.18454" width="21.1963" height="21.1963" fill="#D9D9D9"/>
</mask>
<g mask="url(#mask0_73_470)">
<path d="M3.5 22.8035V5.70353C3.5 5.18103 3.6862 4.73358 4.0586 4.36118C4.43037 3.98941 4.8775 3.80353 5.4 3.80353H20.6C21.1225 3.80353 21.57 3.98941 21.9424 4.36118C22.3141 4.73358 22.5 5.18103 22.5 5.70353V17.1035C22.5 17.626 22.3141 18.0735 21.9424 18.4459C21.57 18.8176 21.1225 19.0035 20.6 19.0035H7.3L3.5 22.8035ZM5.4 18.2198L6.51625 17.1035H20.6V5.70353H5.4V18.2198Z" fill="white" fill-opacity="0.9"/>
</g>
</svg>
