<svg width="36" height="36" viewBox="0 0 36 36" fill="none" xmlns="http://www.w3.org/2000/svg">
<path d="M11.209 24.5625C12.3693 24.5625 13.4821 24.1016 14.3026 23.2811C15.123 22.4606 15.584 21.3478 15.584 20.1875C15.584 19.0272 15.123 17.9144 14.3026 17.0939C13.4821 16.2734 12.3693 15.8125 11.209 15.8125C10.0487 15.8125 8.93586 16.2734 8.11539 17.0939C7.29492 17.9144 6.83398 19.0272 6.83398 20.1875C6.83398 21.3478 7.29492 22.4606 8.11539 23.2811C8.93586 24.1016 10.0487 24.5625 11.209 24.5625ZM11.209 18C11.7891 18 12.3455 18.2305 12.7558 18.6407C13.166 19.0509 13.3965 19.6073 13.3965 20.1875C13.3965 20.7677 13.166 21.3241 12.7558 21.7343C12.3455 22.1445 11.7891 22.375 11.209 22.375C10.6288 22.375 10.0724 22.1445 9.66219 21.7343C9.25195 21.3241 9.02148 20.7677 9.02148 20.1875C9.02148 19.6073 9.25195 19.0509 9.66219 18.6407C10.0724 18.2305 10.6288 18 11.209 18ZM16.6777 26.75H5.74023C4.28983 26.75 2.89883 27.3262 1.87324 28.3518C0.847655 29.3773 0.271484 30.7683 0.271484 32.2188C0.271484 33.089 0.617188 33.9236 1.23254 34.5389C1.8479 35.1543 2.68249 35.5 3.55273 35.5H18.8652C19.7355 35.5 20.5701 35.1543 21.1854 34.5389C21.8008 33.9236 22.1465 33.089 22.1465 32.2188C22.1465 30.7683 21.5703 29.3773 20.5447 28.3518C19.5191 27.3262 18.1281 26.75 16.6777 26.75ZM18.8652 33.3125H3.55273C3.26265 33.3125 2.98445 33.1973 2.77934 32.9921C2.57422 32.787 2.45898 32.5088 2.45898 32.2188C2.45898 31.3485 2.80469 30.5139 3.42004 29.8986C4.0354 29.2832 4.86999 28.9375 5.74023 28.9375H16.6777C17.548 28.9375 18.3826 29.2832 18.9979 29.8986C19.6133 30.5139 19.959 31.3485 19.959 32.2188C19.959 32.5088 19.8438 32.787 19.6386 32.9921C19.4335 33.1973 19.1553 33.3125 18.8652 33.3125ZM35.2715 5.96875V16.9062C35.2715 18.3567 34.6953 19.7477 33.6697 20.7732C32.6441 21.7988 31.2531 22.375 29.8027 22.375H23.693L19.6396 26.4306C19.5378 26.5321 19.4171 26.6126 19.2842 26.6674C19.1513 26.7222 19.009 26.7503 18.8652 26.75C18.7218 26.7503 18.5798 26.7221 18.4474 26.6669C18.2474 26.5842 18.0764 26.444 17.9561 26.2641C17.8358 26.0842 17.7715 25.8727 17.7715 25.6562V21.2812C17.7715 20.9912 17.8867 20.713 18.0918 20.5079C18.297 20.3027 18.5752 20.1875 18.8652 20.1875C19.1553 20.1875 19.4335 20.3027 19.6386 20.5079C19.8438 20.713 19.959 20.9912 19.959 21.2812V23.0159L22.4659 20.5069C22.5676 20.4054 22.6884 20.3249 22.8213 20.2701C22.9541 20.2153 23.0965 20.1872 23.2402 20.1875H29.8027C30.673 20.1875 31.5076 19.8418 32.1229 19.2264C32.7383 18.6111 33.084 17.7765 33.084 16.9062V5.96875C33.084 5.09851 32.7383 4.26391 32.1229 3.64856C31.5076 3.0332 30.673 2.6875 29.8027 2.6875H14.4902C13.62 2.6875 12.7854 3.0332 12.17 3.64856C11.5547 4.26391 11.209 5.09851 11.209 5.96875V12.5312C11.209 12.8213 11.0938 13.0995 10.8886 13.3046C10.6835 13.5098 10.4053 13.625 10.1152 13.625C9.82515 13.625 9.54695 13.5098 9.34184 13.3046C9.13672 13.0995 9.02148 12.8213 9.02148 12.5312V5.96875C9.02148 4.51835 9.59765 3.12735 10.6232 2.10176C11.6488 1.07617 13.0398 0.5 14.4902 0.5L29.8027 0.5C31.2531 0.5 32.6441 1.07617 33.6697 2.10176C34.6953 3.12735 35.2715 4.51835 35.2715 5.96875ZM18.0909 13.9444L22.7874 9.25H18.8652C18.5752 9.25 18.297 9.13477 18.0918 8.92965C17.8867 8.72453 17.7715 8.44633 17.7715 8.15625C17.7715 7.86617 17.8867 7.58797 18.0918 7.38285C18.297 7.17773 18.5752 7.0625 18.8652 7.0625H25.4277C25.5711 7.06256 25.7131 7.0908 25.8455 7.14563C26.1132 7.25786 26.3261 7.47075 26.4384 7.73844C26.4932 7.87091 26.5214 8.01288 26.5215 8.15625V14.7188C26.5215 15.0088 26.4063 15.287 26.2011 15.4921C25.996 15.6973 25.7178 15.8125 25.4277 15.8125C25.1377 15.8125 24.8595 15.6973 24.6543 15.4921C24.4492 15.287 24.334 15.0088 24.334 14.7188V10.7966L19.6396 15.4931C19.5378 15.5946 19.4171 15.6751 19.2842 15.7299C19.1513 15.7847 19.009 15.8128 18.8652 15.8125C18.7215 15.8128 18.5791 15.7847 18.4463 15.7299C18.3134 15.6751 18.1926 15.5946 18.0909 15.4931C17.989 15.3915 17.9082 15.2708 17.8531 15.1379C17.7979 15.0051 17.7695 14.8626 17.7695 14.7188C17.7695 14.5749 17.7979 14.4324 17.8531 14.2996C17.9082 14.1667 17.989 14.046 18.0909 13.9444Z" fill="white"/>
</svg>
