<svg width="36" height="36" viewBox="0 0 36 36" fill="none" xmlns="http://www.w3.org/2000/svg">
<path fill-rule="evenodd" clip-rule="evenodd" d="M13.8236 2.38547C14.0971 2.11199 14.468 1.95834 14.8548 1.95834H26.5215C28.9378 1.95834 30.8965 3.9171 30.8965 6.33334V29.6667C30.8965 32.083 28.9378 34.0417 26.5215 34.0417H9.02148C6.60524 34.0417 4.64648 32.083 4.64648 29.6667V12.1667C4.64648 11.7799 4.80013 11.409 5.07362 11.1355L13.8236 2.38547ZM26.5215 4.87501H16.3132V12.1667C16.3132 12.9721 15.6603 13.625 14.8548 13.625H7.56315V29.6667C7.56315 30.4721 8.21608 31.125 9.02148 31.125H26.5215C27.3269 31.125 27.9798 30.4721 27.9798 29.6667V6.33334C27.9798 5.52794 27.3269 4.87501 26.5215 4.87501ZM9.62554 10.7083H13.3965V6.9374L9.62554 10.7083ZM10.4798 19.4583C10.4798 18.6529 11.1327 18 11.9382 18H23.6048C24.4103 18 25.0632 18.6529 25.0632 19.4583C25.0632 20.2638 24.4103 20.9167 23.6048 20.9167H11.9382C11.1327 20.9167 10.4798 20.2638 10.4798 19.4583ZM10.4798 25.2917C10.4798 24.4862 11.1327 23.8333 11.9382 23.8333H23.6048C24.4103 23.8333 25.0632 24.4862 25.0632 25.2917C25.0632 26.0971 24.4103 26.75 23.6048 26.75H11.9382C11.1327 26.75 10.4798 26.0971 10.4798 25.2917Z" fill="white"/>
</svg>
