<svg width="36" height="36" viewBox="0 0 36 36" fill="none" xmlns="http://www.w3.org/2000/svg">
<path fill-rule="evenodd" clip-rule="evenodd" d="M4.90258 7.35344C3.36148 8.93937 2.49414 11.0886 2.49414 13.3297C2.49414 15.5719 3.36148 17.7211 4.90258 19.3059L15.4299 30.133C16.0512 30.7717 16.8945 31.1283 17.7738 31.1283C18.6521 31.1283 19.4965 30.7717 20.1177 30.133C22.0241 28.1719 30.6363 19.2972 30.6363 19.2972C32.1774 17.7123 33.0448 15.5631 33.0448 13.3209C33.0448 11.0787 32.1774 8.93062 30.6363 7.34469C29.0843 5.74891 26.9777 4.85422 24.7826 4.85422C22.5874 4.85422 20.482 5.74891 18.9299 7.34469L17.7651 8.54234L16.609 7.35344C15.057 5.75765 12.9515 4.86297 10.7563 4.86297C8.56117 4.86297 6.45461 5.75765 4.90258 7.35344ZM6.47102 8.87922C7.60742 7.71 9.14852 7.05047 10.7563 7.05047C12.3641 7.05047 13.9041 7.71 15.0405 8.87922L16.9809 10.8742C17.1865 11.0853 17.4698 11.2056 17.7651 11.2056C18.0604 11.2056 18.3437 11.0853 18.5493 10.8742L20.4984 8.86937C21.6348 7.70125 23.1748 7.04172 24.7826 7.04172C26.3904 7.04172 27.9304 7.70125 29.0679 8.86937C29.0712 8.87375 29.0745 8.87703 29.0788 8.88141C30.2152 10.0506 30.8573 11.6519 30.8573 13.3209C30.8573 14.99 30.2152 16.5923 29.0679 17.7725C29.0679 17.7725 20.4557 26.6472 18.5493 28.6083C18.3437 28.8194 18.0648 28.9408 17.7738 28.9408C17.4829 28.9408 17.204 28.8194 16.9984 28.6083L6.47102 17.7812C5.32367 16.6011 4.68164 14.9987 4.68164 13.3297C4.68164 11.6606 5.32367 10.0594 6.47102 8.87922Z" fill="white"/>
<path fill-rule="evenodd" clip-rule="evenodd" d="M16.6754 16.9095H14.4912C13.8875 16.9095 13.3975 17.3995 13.3975 18.0033C13.3975 18.607 13.8875 19.097 14.4912 19.097H16.6754V21.2812C16.6754 21.885 17.1654 22.375 17.7692 22.375C18.3729 22.375 18.8629 21.885 18.8629 21.2812V19.097H21.0471C21.6509 19.097 22.1409 18.607 22.1409 18.0033C22.1409 17.3995 21.6509 16.9095 21.0471 16.9095H18.8629V14.7253C18.8629 14.1216 18.3729 13.6316 17.7692 13.6316C17.1654 13.6316 16.6754 14.1216 16.6754 14.7253V16.9095Z" fill="white"/>
</svg>
