<svg width="15" height="15" viewBox="0 0 15 15" fill="none" xmlns="http://www.w3.org/2000/svg">
<g clip-path="url(#clip0_480_858)">
<path d="M7.49964 14.267C11.2369 14.267 14.2669 11.2371 14.2669 7.49982C14.2669 3.76256 11.2369 0.73291 7.49964 0.73291C3.76238 0.73291 0.732422 3.76256 0.732422 7.49982C0.732422 11.2371 3.76238 14.267 7.49964 14.267Z" stroke="black" stroke-width="0.5"/>
<path d="M8.32069 11.4094V6H6V6.59088H6.67931V11.4094H6V12H9V11.4094H8.32069Z" fill="black"/>
<path d="M7.49955 5.32838C8.291 5.32838 8.93239 4.68699 8.93239 3.89555C8.93239 3.1041 8.291 2.4624 7.49955 2.4624C6.70779 2.4624 6.06641 3.1041 6.06641 3.89555C6.06641 4.68699 6.70779 5.32838 7.49955 5.32838Z" fill="black"/>
</g>
<defs>
<clipPath id="clip0_480_858">
<rect width="15" height="15" fill="white"/>
</clipPath>
</defs>
</svg>
