<svg width="25" height="25" viewBox="0 0 25 25" fill="none" xmlns="http://www.w3.org/2000/svg">
<path d="M21.324 12.4615C21.676 12.7212 22 12.9788 22 13.8844C22 14.7922 21.542 15.1595 21.052 15.415C21.2523 15.7597 21.3162 16.1736 21.23 16.5676C21.076 17.2939 20.446 17.8575 19.886 18.0243C20.128 18.4339 20.204 18.8371 19.916 19.3332C19.546 19.956 19.224 20.1924 17.8 20.1924H12C10.024 20.1924 9 19.0398 9 18.0813V13.1519C9 10.5552 11.934 8.34908 11.934 6.54408L11.722 4.29575C11.712 4.15853 11.738 3.82286 11.838 3.72575C11.998 3.55897 12.44 3.30353 13.108 3.30353C13.544 3.30353 13.834 3.39008 14.176 3.56319C15.338 4.14797 15.64 5.62786 15.64 6.81853C15.64 7.39064 14.812 9.10486 14.7 9.69808C14.7 9.69808 16.434 9.29275 18.458 9.27797C20.58 9.26531 21.956 9.67908 21.956 11.0555C21.956 11.6065 21.518 12.1596 21.324 12.4615ZM4.2 11.748H5.8C6.11826 11.748 6.42348 11.8814 6.64853 12.119C6.87357 12.3565 7 12.6787 7 13.0146V21.0369C7 21.3728 6.87357 21.695 6.64853 21.9325C6.42348 22.1701 6.11826 22.3035 5.8 22.3035H4.2C3.88174 22.3035 3.57652 22.1701 3.35147 21.9325C3.12643 21.695 3 21.3728 3 21.0369V13.0146C3 12.6787 3.12643 12.3565 3.35147 12.119C3.57652 11.8814 3.88174 11.748 4.2 11.748Z" fill="white" fill-opacity="0.9"/>
</svg>
