<svg width="15" height="15" viewBox="0 0 15 15" fill="none" xmlns="http://www.w3.org/2000/svg">
<g clip-path="url(#clip0_480_833)">
<path d="M9.375 7.5H1.25M1.25 7.5L3.4375 5.625M1.25 7.5L3.4375 9.375" stroke="white" stroke-linecap="round" stroke-linejoin="round"/>
<path d="M5.62598 4.375C5.63355 3.01561 5.69383 2.27941 6.17406 1.79917C6.72326 1.25 7.60713 1.25 9.37488 1.25H9.99988C11.7676 1.25 12.6516 1.25 13.2007 1.79917C13.7499 2.34835 13.7499 3.23223 13.7499 5V10C13.7499 11.7677 13.7499 12.6516 13.2007 13.2008C12.7204 13.6811 11.9843 13.7414 10.6248 13.7489M5.62598 10.625C5.63355 11.9844 5.69383 12.7206 6.17406 13.2008C6.57488 13.6016 7.15395 13.7099 8.12476 13.7392" stroke="white" stroke-linecap="round"/>
</g>
<defs>
<clipPath id="clip0_480_833">
<rect width="15" height="15" fill="white"/>
</clipPath>
</defs>
</svg>
