<svg width="20" height="21" viewBox="0 0 20 21" fill="none" xmlns="http://www.w3.org/2000/svg">
<g clip-path="url(#clip0_254_496)">
<path d="M3.18186 6.88029C4.68809 6.88029 5.90914 5.66145 5.90914 4.15794C5.90914 2.65442 4.68809 1.43558 3.18186 1.43558C1.67563 1.43558 0.45459 2.65442 0.45459 4.15794C0.45459 5.66145 1.67563 6.88029 3.18186 6.88029Z" fill="white"/>
<path d="M10.0002 6.88029C11.5065 6.88029 12.7275 5.66145 12.7275 4.15794C12.7275 2.65442 11.5065 1.43558 10.0002 1.43558C8.49399 1.43558 7.27295 2.65442 7.27295 4.15794C7.27295 5.66145 8.49399 6.88029 10.0002 6.88029Z" fill="white"/>
<path d="M16.8181 6.88029C18.3243 6.88029 19.5454 5.66145 19.5454 4.15794C19.5454 2.65442 18.3243 1.43558 16.8181 1.43558C15.3119 1.43558 14.0908 2.65442 14.0908 4.15794C14.0908 5.66145 15.3119 6.88029 16.8181 6.88029Z" fill="white"/>
<path d="M3.18186 13.6862C4.68809 13.6862 5.90914 12.4673 5.90914 10.9638C5.90914 9.4603 4.68809 8.24146 3.18186 8.24146C1.67563 8.24146 0.45459 9.4603 0.45459 10.9638C0.45459 12.4673 1.67563 13.6862 3.18186 13.6862Z" fill="white"/>
<path d="M10.0002 13.6862C11.5065 13.6862 12.7275 12.4673 12.7275 10.9638C12.7275 9.4603 11.5065 8.24146 10.0002 8.24146C8.49399 8.24146 7.27295 9.4603 7.27295 10.9638C7.27295 12.4673 8.49399 13.6862 10.0002 13.6862Z" fill="white"/>
<path d="M16.8181 13.6862C18.3243 13.6862 19.5454 12.4673 19.5454 10.9638C19.5454 9.4603 18.3243 8.24146 16.8181 8.24146C15.3119 8.24146 14.0908 9.4603 14.0908 10.9638C14.0908 12.4673 15.3119 13.6862 16.8181 13.6862Z" fill="white"/>
<path d="M3.18186 20.4921C4.68809 20.4921 5.90914 19.2732 5.90914 17.7697C5.90914 16.2662 4.68809 15.0474 3.18186 15.0474C1.67563 15.0474 0.45459 16.2662 0.45459 17.7697C0.45459 19.2732 1.67563 20.4921 3.18186 20.4921Z" fill="white"/>
<path d="M10.0002 20.4921C11.5065 20.4921 12.7275 19.2732 12.7275 17.7697C12.7275 16.2662 11.5065 15.0474 10.0002 15.0474C8.49399 15.0474 7.27295 16.2662 7.27295 17.7697C7.27295 19.2732 8.49399 20.4921 10.0002 20.4921Z" fill="white"/>
<path d="M16.8181 20.4921C18.3243 20.4921 19.5454 19.2732 19.5454 17.7697C19.5454 16.2662 18.3243 15.0474 16.8181 15.0474C15.3119 15.0474 14.0908 16.2662 14.0908 17.7697C14.0908 19.2732 15.3119 20.4921 16.8181 20.4921Z" fill="white"/>
</g>
<defs>
<clipPath id="clip0_254_496">
<rect width="20" height="19.964" fill="white" transform="translate(0 0.981842)"/>
</clipPath>
</defs>
</svg>
