<svg width="20" height="20" viewBox="0 0 20 20" fill="none" xmlns="http://www.w3.org/2000/svg">
<path d="M5.59526 16.7469C6.56494 16.7469 8.1592 16.6578 10.3153 16.2606C9.94241 17.2745 8.9706 18.0011 7.82909 18.0011C6.88008 18.0011 6.04873 17.4984 5.57957 16.7469H5.59526ZM17.7704 11.2155C17.9465 12.1224 17.3105 12.9245 15.8788 13.6012C15.0945 13.9712 13.3505 14.6756 10.47 15.2361C8.24833 15.6674 6.62055 15.7665 5.59597 15.7665C5.29152 15.7665 5.03983 15.758 4.84162 15.7466C3.26161 15.656 2.37037 15.1498 2.19426 14.2429C1.92688 12.8689 2.34969 12.3384 3.05057 11.46L3.23523 11.2283C3.70795 10.6287 3.89262 10.0397 3.59031 8.4861C2.91367 5.00667 4.48084 2.62882 7.88898 1.96288C11.2985 1.30478 13.6429 2.92044 14.3195 6.40058C14.6211 7.95421 15.0133 8.43049 15.6763 8.80909V8.8098L15.9345 8.95597C16.9127 9.50783 17.5031 9.8408 17.7704 11.2155Z" fill="white"/>
</svg>
