<svg width="642" height="642" viewBox="0 0 642 642" fill="none" xmlns="http://www.w3.org/2000/svg">
<path d="M227.709 0.967775C226.606 3.15936 227.157 5.91079 229.716 10.9054C232.474 16.2028 232.725 17.9855 231.27 20.8392C230.719 21.8595 229.966 24.6109 229.515 26.9535C228.211 33.9849 225.352 39.0798 221.59 41.0679C220.788 41.4768 220.186 42.1369 220.186 42.5964C220.186 44.125 221.941 46.7226 225.503 50.4428C229.615 54.7734 230.467 56.4052 229.615 58.3398C229.114 59.5139 229.214 59.8196 230.869 61.5507C234.029 64.8113 232.975 65.8823 229.314 63.1824C227.157 61.4991 225.352 59.0028 224.75 56.7109C224.299 55.0791 223.145 54.6225 218.882 54.5709C216.374 54.5193 215.672 54.7228 214.869 55.5883C213.967 56.6077 213.967 56.6593 214.919 58.4936C215.521 59.6648 217.226 61.245 219.232 62.6713C221.089 63.9448 223.296 65.8307 224.148 66.851C225.051 67.8685 227.509 69.8566 229.615 71.2313C236.035 75.4597 237.64 78.0592 236.787 82.7481C235.835 87.9453 234.029 87.7905 228.01 81.9819C224.549 78.6707 223.646 78.0077 223.396 78.7223C223.095 79.4856 223.697 82.1854 224.8 85.0391C225.503 86.9249 224.048 88.0456 219.885 88.8108C216.624 89.4738 216.474 89.5226 217.627 90.1856C218.33 90.5419 221.138 91.0024 223.947 91.2049C229.214 91.6138 232.725 92.7335 234.33 94.5678C236.437 97.0135 236.938 99.3054 236.988 107.254C237.038 112.657 237.389 116.885 238.192 121.623C238.844 125.343 239.245 128.706 239.045 129.165C238.593 130.388 235.985 128.808 229.264 123.305C224.499 119.434 222.242 117.954 215.371 114.591C207.547 110.771 200.675 108.019 198.819 108.019C197.214 108.019 194.656 105.931 193.653 103.791C192.449 101.294 191.296 96.0448 190.794 90.8476C190.393 86.517 189.741 85.2942 188.136 85.854C187.083 86.1597 187.032 86.3651 187.384 90.2362C187.534 92.4278 187.584 94.2621 187.384 94.2621C187.233 94.2621 185.779 93.5484 184.123 92.6819C181.615 91.3568 181.013 91.2049 180.061 91.7141C179.007 92.274 179.058 92.4278 182.468 95.9426C188.437 102.262 187.835 103.993 180.161 102.159C174.794 100.886 169.277 98.4398 166.869 96.2483C164.362 94.008 163.208 91.5107 162.757 87.1284C162.255 82.3392 160.75 78.1108 158.092 73.9827C156.788 71.945 156.337 73.4735 157.239 76.888C158.042 79.7913 158.042 80.0454 157.29 81.2683C155.835 83.5105 153.578 84.5824 150.217 84.5824C146.406 84.5824 142.243 83.5105 138.481 81.5253L135.572 79.9967L130.757 81.574C128.048 82.4424 125.892 83.3596 125.892 83.6137C125.892 84.0713 127.346 84.3254 131.911 84.8365C133.416 84.9884 135.672 85.3448 136.927 85.5999C138.18 85.854 142.192 86.4167 145.854 86.8734C155.434 87.994 159.346 89.9821 160.249 94.2105C160.701 96.3505 160.048 97.217 156.688 99.0513C155.083 99.9168 153.679 101.039 153.578 101.548C153.427 102.363 153.98 102.414 160.851 102.363C168.826 102.262 174.845 103.28 179.058 105.471C182.317 107.154 181.816 107.662 175.496 109.19C166.82 111.28 162.707 115.356 165.365 119.177C165.917 119.994 166.167 121.268 166.118 122.999C166.017 125.903 166.519 127.177 167.723 126.719C168.976 126.208 171.383 122.491 172.888 118.668L174.292 115.154L177.502 114.133C182.569 112.503 187.283 111.942 194.105 112.197C199.923 112.351 200.574 112.503 203.082 113.879C204.637 114.745 206.794 116.579 208.098 118.211C212.362 123.408 220.336 130.999 223.697 132.986C225.503 134.108 230.318 136.502 234.38 138.285C242.405 141.851 245.264 143.686 245.264 145.214C245.264 146.385 243.158 147.608 240.298 148.068C235.734 148.831 235.734 150.768 240.398 151.888C246.117 153.265 248.274 154.691 248.274 157.188C248.274 161.468 243.759 164.168 241.502 161.265L240.449 159.939L238.192 161.671C234.731 164.374 232.674 165.291 230.167 165.239C227.859 165.188 227.81 165.239 227.558 167.125C227.208 170.028 225.953 171.454 221.239 174.613C218.882 176.193 215.672 178.639 214.067 180.065C210.757 183.123 205.69 186.282 202.932 187.045C199.823 187.914 197.816 187.251 195.458 184.6C194.305 183.276 191.396 180.116 188.989 177.568C186.531 175.022 184.575 172.677 184.575 172.371C184.575 171.711 183.371 171.2 181.716 171.2C180.01 171.2 180.512 172.322 182.518 173.034C183.822 173.442 184.374 174.053 184.876 175.582C185.227 176.651 186.18 178.131 186.982 178.843C187.835 179.556 189.741 181.188 191.245 182.511C192.801 183.888 194.255 184.957 194.606 184.957C195.509 184.957 198.167 189.696 198.017 191.071C197.816 192.854 196.261 192.905 190.193 191.377C183.472 189.645 182.87 189.645 185.227 191.631C187.384 193.465 187.484 193.823 185.979 194.842C182.769 196.93 172.337 196.828 168.726 194.688C164.613 192.242 132.914 185.976 132.914 187.608C132.914 187.811 133.315 188.014 133.817 188.014C135.873 188.014 145.904 190.665 148.262 191.836C150.217 192.805 151.622 193.111 154.281 193.111C164.562 193.111 171.033 196.37 171.033 201.516C171.033 203.554 170.431 204.267 165.014 208.905C159.747 213.337 157.39 214.765 153.679 215.782C149.566 216.853 147.509 216.753 145.202 215.273C142.694 213.696 141.842 213.642 142.042 215.071C142.293 216.853 144.399 218.025 148.663 218.636C151.773 219.096 152.676 219.451 152.826 220.165C152.977 220.727 153.177 221.133 153.327 221.133C153.929 221.133 158.694 217.465 162.656 213.899C169.227 207.988 170.18 207.376 173.59 206.562C175.296 206.153 178.958 204.573 181.766 203.096C189.49 198.919 194.506 197.697 195.609 199.733C196.412 201.262 197.766 200.956 200.625 198.562C202.029 197.391 204.587 195.351 206.192 193.976C211.058 190.102 213.666 190.868 213.666 196.168C213.666 197.645 213.967 198.357 214.769 198.919C215.371 199.327 216.073 199.531 216.323 199.376C216.624 199.174 216.725 196.474 216.524 192.142C216.123 183.682 216.323 183.071 220.035 182.105C223.697 181.136 225.803 179.965 230.467 176.297C236.437 171.556 239.997 169.977 245.012 169.977C250.328 169.925 253.039 171.405 254.995 175.379C256.499 178.437 256.599 180.625 255.497 184.499C254.193 188.88 253.039 190.868 251.183 191.631C248.876 192.6 246.819 192.448 238.844 190.765C232.875 189.543 231.521 189.391 228.512 189.848C226.606 190.102 224.95 190.562 224.85 190.868C224.299 192.6 236.787 195.199 246.266 195.351C252.385 195.402 253.288 195.557 255.497 196.728C256.849 197.391 258.656 198.868 259.507 199.939C260.914 201.671 261.063 202.231 261.063 205.339C261.063 209.668 260.513 210.333 255.397 212.522C249.627 214.967 243.158 216.447 229.866 218.33C217.327 220.165 207.396 222.102 204.537 223.325C202.932 224.037 199.12 227.807 199.12 228.725C199.12 230.916 205.54 230.714 212.612 228.317C217.076 226.788 217.578 226.739 231.12 226.23C245.363 225.719 249.326 225.313 255.697 223.988C266.781 221.591 272.347 222.968 272.347 228.064C272.347 231.122 269.941 232.291 260.813 233.668C254.293 234.636 251.483 235.553 249.678 237.285C247.873 239.017 247.922 239.782 249.878 240.802C251.933 241.87 254.193 241.516 259.158 239.17C261.315 238.202 263.971 237.182 265.125 236.93C268.537 236.165 273.854 238.253 270.892 239.222C269.54 239.628 264.524 245.233 263.32 247.63C262.166 249.922 262.017 251.705 263.019 251.705C263.922 251.705 266.73 249.717 268.938 247.425C270.391 245.948 271.144 245.539 272.198 245.694C274.356 245.948 275.006 248.494 275.258 258.073L275.458 266.225L277.012 267.908L278.618 269.588L278.919 277.59C279.22 285.282 279.269 285.742 281.025 290.071C282.027 292.517 283.634 295.727 284.637 297.102C285.99 299.09 286.895 301.334 288.398 306.885C290.705 315.547 291.659 320.542 291.206 321.765C290.656 323.293 284.786 322.579 280.274 320.39C274.204 317.433 271.396 314.173 272.147 311.065C272.347 310.148 271.998 308.822 270.892 306.579C267.984 300.671 266.128 299.344 267.334 304.033C269.239 311.83 268.987 314.376 266.18 314.376C263.32 314.376 261.364 313.359 255.897 309.127C253.039 306.939 249.727 304.696 248.575 304.134C246.968 303.422 246.117 302.605 245.164 300.771C242.957 296.645 241.653 291.599 241.602 287.067C241.553 283.296 241.702 282.633 243.358 279.167C245.965 273.768 248.977 262.456 248.074 261.488C247.47 260.876 245.917 263.222 244.562 266.89C243.709 269.182 242.355 271.322 240.549 273.359C237.489 276.825 236.838 276.773 235.734 272.902C234.781 269.436 233.477 267.602 231.872 267.399C229.665 267.142 229.716 264.444 231.923 259.399C233.728 255.373 234.179 253.079 233.227 252.468C232.072 251.705 230.668 252.979 229.114 256.19C226.305 261.945 224.399 262.047 216.022 256.85C209.302 252.622 207.596 252.062 194.305 250.176C187.835 249.207 185.177 247.373 183.873 242.891C183.672 242.279 183.07 242.025 181.615 242.025C180.161 242.025 178.055 241.259 174.192 239.222C168.625 236.319 168.023 236.113 168.023 236.877C168.023 238.153 171.383 241.414 173.942 242.585C177.353 244.165 180.061 246.611 180.061 248.088C180.061 249.87 178.305 250.382 173.59 249.922C169.127 249.513 168.726 249.513 162.155 249.668C159.096 249.77 156.938 249.411 152.424 248.188C149.214 247.324 145.603 246.611 144.35 246.611C141.641 246.611 138.833 247.528 139.083 248.342C139.885 251.042 154.883 253.591 166.519 252.979C172.186 252.673 173.39 252.774 179.058 254.05C183.923 255.068 187.433 255.476 194.606 255.782C205.239 256.19 206.693 256.596 213.715 260.979C216.022 262.405 219.383 264.391 221.189 265.41C225.652 267.959 227.509 270.659 230.969 279.677C234.731 289.459 235.082 290.784 234.43 291.856C233.577 293.181 231.722 293.181 225.853 291.599C221.64 290.53 219.634 290.276 216.675 290.43C209.954 290.736 206.042 290.634 197.766 289.919C189.139 289.207 189.29 289.207 179.258 291.551C176.249 292.211 173.891 291.551 172.939 289.716C172.587 289.154 172.186 285.996 172.036 282.787C171.835 279.576 171.434 276.367 171.082 275.702C170.431 274.479 170.431 274.479 163.559 274.785C154.029 275.193 148.813 276.825 144.952 280.493C143.246 282.176 143.095 282.176 140.688 281.716C136.826 281.002 134.769 279.982 128.199 275.702C124.838 273.562 120.375 270.762 118.168 269.488C113.102 266.633 110.193 263.985 108.839 261.13C107.886 259.093 107.785 258.277 108.037 254.865C108.889 244.927 108.939 244.062 108.387 244.062C108.086 244.062 107.836 244.573 107.836 245.184C107.836 245.845 107.134 248.853 106.331 251.959C104.425 259.093 104.425 260.979 106.331 264.596C109.04 269.742 107.986 269.894 103.271 265.056C99.66 261.285 97.8047 258.582 96.8512 255.731C96.0994 253.385 92.2875 247.119 89.7291 244.01C87.7228 241.565 82.1053 236.93 81.1528 236.93C80.9016 236.93 81.6544 238.099 82.8581 239.528C88.9266 246.762 89.9803 249.362 87.5728 250.993C86.5697 251.604 85.4662 251.705 81.9047 251.502C79.4972 251.347 73.3284 251.042 68.2125 250.839C57.8803 250.382 56.9775 250.125 55.0716 246.813L54.0178 245.031L52.8647 246.15C51.36 247.577 51.36 248.188 52.8141 249.513C55.7231 252.216 59.1337 253.133 68.4628 253.744C76.0369 254.202 86.4187 255.731 90.6825 257.054C94.0425 258.073 96.6009 260.368 98.0053 263.628C99.4097 266.736 102.921 270.199 106.481 271.83C107.936 272.493 111.798 274.022 115.108 275.193C122.482 277.794 122.832 277.944 129.453 282.53C134.82 286.25 139.334 288.39 141.842 288.39C143.798 288.339 146.807 286.81 149.967 284.214C153.679 281.156 155.534 280.239 158.142 280.239C161.553 280.239 163.208 281.053 164.512 283.345C167.02 287.984 165.315 293.333 159.647 298.785C157.841 300.465 154.13 304.134 151.472 306.836C146.205 312.236 143.046 314.173 140.487 313.611C139.685 313.459 138.08 312.388 136.876 311.267C131.309 306.021 118.017 296.391 114.707 295.219C113.554 294.81 112.049 294.099 111.397 293.639C109.992 292.722 99.8109 292.007 99.8109 292.822C99.8109 293.128 100.312 293.487 100.914 293.639C102.921 294.199 101.617 294.351 98.3063 293.996C93.9928 293.487 71.7234 294.045 71.7234 294.608C71.7234 294.862 72.7266 295.525 73.98 296.085C76.0369 297.002 77.1403 297.102 85.065 296.95L93.8925 296.797L95.0963 298.225C95.7478 298.99 96.3 300.111 96.3 300.671C96.3 301.842 95.8481 301.842 101.165 300.567C103.572 299.956 107.384 299.448 109.591 299.396C114.356 299.344 116.463 300.365 118.268 303.624C119.171 305.256 120.124 306.021 123.033 307.448C125.039 308.365 127.647 309.536 128.902 309.996C134.067 311.83 135.672 313.868 134.419 316.873C133.867 318.35 133.867 318.35 128.249 318.556C123.334 318.808 121.729 319.114 115.61 321.153C111.748 322.376 107.886 323.599 106.983 323.753C105.128 324.159 99.9113 323.547 89.0269 321.511C84.6131 320.696 78.9459 319.779 76.4878 319.522C73.7794 319.167 69.5662 318.148 66.0553 316.974C58.5319 314.376 56.1244 314.019 55.0209 315.139C54.5194 315.599 54.1688 316.314 54.1688 316.668C54.1688 317.536 53.5669 317.687 48.15 318.453C38.4197 319.779 33.855 320.593 33.4537 320.948C32.0494 322.376 39.0216 322.836 45.6422 321.765C61.8422 319.216 61.0903 319.319 67.9612 319.879C72.5756 320.288 77.19 321.153 83.7609 322.782C88.8769 324.107 94.845 325.281 97.0519 325.433C103.222 325.893 105.83 327.827 105.83 331.954C105.83 336.03 102.669 338.527 97.8047 338.222C96.1997 338.17 94.7447 338.222 94.5441 338.374C94.3941 338.579 94.9453 339.291 95.7984 340.056C97.0022 341.076 97.905 341.382 99.7603 341.382C102.469 341.382 103.672 340.362 106.08 336.03C106.833 334.605 109.19 331.75 111.347 329.61C117.616 323.345 119.272 322.936 136.927 323.599C142.745 323.853 144.45 323.088 150.97 317.79C153.327 315.853 156.086 313.816 157.089 313.205C158.092 312.593 159.096 311.573 159.246 310.962C159.397 310.301 160.199 308.976 161.102 308.008C163.158 305.614 165.215 305.662 166.869 308.21C168.575 310.811 168.474 314.682 166.519 318.556C165.716 320.185 165.014 321.765 165.014 322.07C165.014 323.956 167.02 326.402 170.782 329.153C175.045 332.313 178.055 335.316 178.055 336.491C178.055 336.947 179.308 337.253 182.468 337.456C184.876 337.662 188.136 337.968 189.741 338.121C191.546 338.325 192.6 338.273 192.6 337.968C192.6 337.204 188.086 335.113 183.572 333.739C175.897 331.396 174.092 330.071 173.039 326.096C171.936 322.019 173.891 318.299 178.004 316.464C179.408 315.853 180.763 314.936 181.013 314.428C181.566 313.407 181.013 310.707 180.01 309.485C179.509 308.873 179.559 308.567 180.211 307.904C180.964 307.142 183.472 307.039 203.985 307.039C221.39 306.987 227.458 307.142 229.063 307.65C230.869 308.21 231.772 309.025 234.781 312.999C236.787 315.599 239.747 319.725 241.402 322.273C243.057 324.77 245.012 327.573 245.716 328.439C246.418 329.304 247.42 330.731 247.873 331.648C248.676 333.176 248.876 333.23 251.933 333.23C255.646 333.23 257.302 334.351 257.302 336.796C257.302 339.853 254.542 340.973 251.031 339.393C249.727 338.782 248.122 338.325 247.521 338.325C246.868 338.325 243.358 336.745 239.647 334.859C232.223 330.936 228.662 329.814 226.555 330.63C223.597 331.802 225.352 333.636 233.628 338.019C236.738 339.65 239.797 341.688 240.499 342.45C242.957 345.459 250.128 351.165 253.641 352.948C256.849 354.576 257.703 354.782 261.163 354.782C264.071 354.782 266.228 354.425 269.439 353.405C274.404 351.825 275.659 351.877 279.57 354.017C283.03 355.953 287.044 360.691 289.651 366.093C291.759 370.373 291.908 371.036 292.211 376.028C292.461 380.614 292.312 382.702 290.957 390.805C288.648 404.511 288.748 404.052 284.686 411.95C283.331 414.549 283.331 414.702 283.532 423.109C283.684 427.796 283.182 427.847 275.207 423.771C271.496 421.886 268.136 420.357 267.735 420.357C266.68 420.357 253.89 414.65 249.477 412.256C245.664 410.167 237.139 403.696 232.524 399.416C231.02 398.04 228.963 395.644 227.96 394.116C224.901 389.428 219.935 387.239 212.211 387.239C204.386 387.239 198.017 389.734 191.947 395.288C186.631 400.18 185.378 400.69 180.612 400.282C175.848 399.823 172.237 398.244 170.03 395.542C168.425 393.608 162.707 383.519 160.4 378.576C159.847 377.301 158.543 372.971 157.591 368.896C156.637 364.819 155.634 360.845 155.333 360.079C154.531 357.736 154.431 358.856 155.233 361.559C156.236 364.922 156.187 366.296 154.732 371.953C152.826 379.441 152.926 380.359 156.387 384.793C158.042 386.83 159.948 389.582 160.65 390.856C163.158 395.188 162.306 395.39 156.738 391.825C152.977 389.428 150.97 388.664 150.97 389.734C150.97 389.991 153.077 392.131 155.634 394.421C158.142 396.765 161.704 400.18 163.509 402.015C165.315 403.849 167.422 405.784 168.173 406.295C168.926 406.753 169.829 407.772 170.18 408.485C170.632 409.555 170.581 409.861 169.778 410.472C167.823 411.95 161.804 411.033 159.747 408.944C159.045 408.23 157.992 407.823 156.588 407.772C154.13 407.67 150.518 405.937 146.105 402.727C142.794 400.333 142.243 400.537 143.998 403.492C145.253 405.632 144.651 406.243 141.742 405.836C138.833 405.378 137.478 404.103 134.419 398.957C131.409 393.862 129.704 392.281 127.246 392.131C125.792 392.079 125.641 392.231 125.491 393.708C125.34 395.136 125.842 395.899 129.604 399.925C131.961 402.422 133.917 404.817 133.917 405.173C133.917 406.447 133.164 407.007 129.352 408.791C125.24 410.676 124.087 411.695 125.993 411.695C127.898 411.695 134.519 409.657 136.776 408.383C138.732 407.313 139.033 407.262 141.691 407.874C143.246 408.282 144.801 408.842 145.202 409.147C145.603 409.453 146.105 409.606 146.356 409.505C146.557 409.352 147.058 409.402 147.409 409.657C147.91 409.963 147.56 410.422 145.955 411.44C144.801 412.154 143.998 412.918 144.149 413.071C144.299 413.224 146.105 413.071 148.162 412.715C151.773 412.103 151.923 412.103 158.092 413.937C167.221 416.637 171.283 416.434 175.045 412.969C175.747 412.357 180.612 410.014 185.828 407.721C204.085 399.772 207.346 399.11 213.465 402.269C215.371 403.237 218.581 405.378 220.537 407.059C222.543 408.74 224.85 410.217 225.703 410.422C226.506 410.625 227.759 411.492 228.512 412.357L229.816 413.937L229.464 420.255C229.063 427.44 229.515 428.765 232.324 429.223C233.227 429.376 236.236 429.885 238.994 430.344C244.811 431.312 249.577 432.993 252.385 435.082C253.44 435.897 255.646 438.343 257.25 440.535C258.805 442.776 262.667 447.77 265.778 451.642C268.887 455.565 271.846 459.59 272.347 460.66C272.901 461.73 275.258 464.686 277.613 467.233C279.973 469.781 282.48 473.093 283.231 474.519C284.686 477.424 284.637 476.609 285.892 511.307C286.193 519.154 286.694 531.637 286.995 539.076C287.746 556.196 287.646 560.629 286.393 568.271C285.791 571.686 285.139 577.137 284.938 580.347C284.586 585.086 284.285 586.716 283.231 588.806C281.577 592.117 277.163 596.194 273.201 598.13C266.28 601.493 245.965 606.486 225.402 609.9C218.53 611.021 209.854 612.804 206.142 613.772C198.217 615.912 196.211 616.421 192.85 617.135C191.497 617.39 178.506 617.849 164.011 618.103C130.657 618.664 114.907 619.275 108.688 620.294C105.93 620.753 100.663 621.364 96.9019 621.67C93.09 621.976 85.7672 622.638 80.5003 623.199C75.2841 623.708 68.6138 624.269 65.7047 624.421C62.7956 624.625 56.6259 625.287 51.9112 625.95C47.2472 626.612 41.0278 627.376 38.1188 627.733C35.2097 628.038 30.1434 628.752 26.8331 629.261C19.8112 630.383 15.1969 630.994 8.2753 631.809C5.51719 632.115 2.50781 632.471 1.605 632.624L0 632.879V642H642V615.606L636.383 615.301C616.621 614.231 608.095 613.925 591.09 613.721C580.608 613.619 567.768 613.364 562.502 613.211C546.503 612.651 488.02 611.785 465.7 611.734C454.116 611.683 437.01 611.988 427.733 612.346C410.127 613.058 410.178 613.058 396.135 611.123C388.761 610.053 380.886 608.066 378.379 606.588C374.365 604.193 367.194 598.181 363.634 594.156C360.724 590.894 359.119 589.621 355.959 587.939C351.244 585.443 348.336 582.946 347.632 580.704C346.78 578.106 344.924 560.578 344.073 547.229C342.417 521.294 342.016 510.543 341.615 483.436C341.163 453.323 341.263 449.349 342.867 442.929C345.477 432.28 349.688 425.911 357.463 420.714C362.179 417.554 365.138 414.752 370.303 408.536L372.661 405.632L374.317 406.549C379.181 409.453 384.297 407.67 394.127 399.722C395.883 398.294 396.737 397.938 398.59 397.938C401.853 397.938 403.858 399.11 407.721 403.39C410.929 406.906 411.23 407.11 411.531 406.04C412.283 403.696 411.883 399.517 410.828 397.735C409.525 395.644 408.121 394.625 405.311 393.862C402.403 393.096 398.441 394.271 395.983 396.613C393.726 398.805 391.821 399.314 389.764 398.193C387.758 397.173 386.504 395.188 386.504 393.048C386.504 390.856 387.558 389.734 390.566 388.768C392.774 388.053 393.075 387.696 396.184 382.499C400.398 375.519 406.265 369.353 406.265 371.953C406.265 372.208 406.818 372.819 407.468 373.225C409.927 374.856 411.832 372.871 415.696 364.717L417.802 360.285L421.213 359.162C423.319 358.45 426.427 357.939 429.487 357.787C435.506 357.533 437.963 358.297 441.625 361.762C446.091 366.042 446.241 366.093 458.178 366.145C463.996 366.194 469.162 366.042 469.763 365.788C471.519 365.176 473.777 362.525 476.132 358.347C480.197 351.214 483.706 348.616 490.077 348.156C494.139 347.802 496.297 348.462 498.654 350.756C501.663 353.659 507.73 354.322 511.744 352.233C514.202 350.959 513.098 350.296 508.031 350.042C504.321 349.839 502.917 349.533 501.511 348.616C496.898 345.711 498.253 339.75 504.071 337.151C505.324 336.593 507.931 335.165 509.839 333.942C514.302 331.19 517.06 330.173 520.321 330.173C523.982 330.173 525.738 331.444 527.843 335.622C530.253 340.514 533.863 345.202 537.123 347.647C538.678 348.819 540.031 349.942 540.083 350.196C540.835 351.825 548.559 353.762 552.22 353.253C556.182 352.642 555.833 351.214 551.318 349.787C549.762 349.279 548.006 348.462 547.456 348.005C546.904 347.496 544.345 345.916 541.738 344.439C536.121 341.227 533.511 338.679 532.407 335.216C531.505 332.565 531.305 329.61 531.907 328.693C532.86 327.116 535.619 326.402 542.44 326.045C552.321 325.485 556.784 324.873 563.906 323.088C567.266 322.224 571.681 321.407 573.638 321.205L577.198 320.848L578.703 315.956C579.556 313.256 580.407 310.301 580.559 309.384C581.111 306.579 579.605 307.396 576.947 311.319C573.987 315.702 572.332 316.619 565.811 317.433C563.204 317.79 560.196 318.35 559.09 318.759C556.133 319.827 550.115 319.676 548.708 318.556C547.857 317.842 547.657 317.279 547.857 316.362C548.359 314.324 553.724 308.467 557.237 306.07C559.042 304.847 562.152 302.659 564.207 301.23C566.464 299.601 568.472 298.582 569.323 298.582H570.678L570.427 292.313C570.126 284.519 571.38 271.374 572.534 270.048C573.586 268.876 576.597 268.011 579.656 268.011C582.215 268.011 583.819 266.99 583.819 265.41C583.819 263.985 585.623 261.436 587.832 259.756C589.085 258.788 592.445 256.442 595.356 254.508C601.675 250.279 606.992 245.082 604.984 245.082C604.734 245.082 603.279 246.456 601.724 248.139C599.768 250.176 598.463 251.196 597.662 251.196C596.207 251.196 595.705 250.125 596.407 248.342C596.659 247.577 596.759 246.865 596.607 246.713C596.507 246.559 593.247 249.616 589.486 253.487C577.949 265.259 578.35 264.954 573.586 264.954C569.724 264.954 567.868 265.667 567.418 267.399C567.266 268.059 567.318 270.405 567.518 272.545C568.071 277.742 567.92 281.462 566.965 284.773C565.06 291.599 562.903 291.702 561.299 285.079C560.998 283.957 560.196 281.411 559.543 279.473C557.938 275.042 557.838 270.711 559.242 267.602C559.844 266.225 560.497 265.462 561.147 265.462C562.253 265.462 564.158 264.139 563.657 263.679C563.505 263.474 562.602 263.731 561.7 264.187C560.345 264.902 559.744 264.954 558.188 264.493C556.483 263.985 553.223 260.928 553.223 259.859C553.223 257.971 556.434 255.782 559.242 255.782C562.453 255.782 561.348 252.876 557.537 251.299C555.231 250.382 553.776 247.63 553.675 244.062C553.675 242.787 553.475 241.21 553.274 240.599C552.971 239.425 552.922 239.425 552.169 240.342C550.817 241.922 550.765 242.839 551.968 245.388C553.976 249.668 553.976 251.042 552.22 254.456C550.364 257.922 550.364 257.462 553.274 268.519C554.326 272.596 555.331 277.794 555.532 280.085C555.933 284.722 556.033 284.568 551.968 284.927C549.613 285.179 549.713 286.659 552.169 287.067C553.274 287.219 554.277 287.576 554.478 287.882C554.627 288.136 554.125 289.513 553.374 290.939L551.968 293.536L553.324 294.71C554.077 295.37 554.928 296.033 555.231 296.136C555.58 296.239 555.48 297.156 554.979 298.99C554.378 301.028 553.475 302.402 551.567 304.339C547.456 308.516 538.778 315.804 533.711 319.371L531.004 321.254H517.863L512.948 323.956C507.581 326.859 505.777 327.164 504.22 325.433C503.018 324.107 501.061 319.779 501.061 318.402C501.061 316.974 502.817 316.314 507.481 316.008C510.893 315.804 511.944 315.547 512.998 314.63L514.302 313.51L513.448 311.267C512.998 309.996 511.695 307.802 510.64 306.327C508.083 302.911 507.581 300.111 508.985 296.95C510.188 294.199 512.497 292.162 515.256 291.448C516.711 291.041 517.963 290.225 519.218 288.748C520.269 287.576 520.923 286.556 520.671 286.456C520.47 286.402 518.164 287.422 515.605 288.748C512.096 290.53 510.291 291.193 508.083 291.347C505.375 291.551 505.123 291.448 503.668 289.867C502.215 288.29 502.163 288.085 502.416 284.621C502.616 281.768 502.516 280.851 501.964 280.341C500.359 279.016 498.554 281.205 498.554 284.568C498.554 285.539 499.557 288.901 500.809 292.059C502.064 295.219 503.367 299.296 503.668 301.13C504.172 304.134 504.12 304.696 503.267 306.531L502.315 308.516L498.603 308.619C492.183 308.822 491.332 310.505 493.787 318.299C496.798 327.827 494.24 333.076 484.308 337.816C480.397 339.699 478.641 340.922 476.483 343.165C466.755 353.354 457.825 356.87 450.604 353.253C447.194 351.571 440.774 344.896 439.871 342.144C438.517 337.916 440.674 332.822 445.888 328.082C449.801 324.516 450.554 322.884 450.554 318.402C450.503 314.936 449.549 312.645 448.045 312.441C446.641 312.236 445.286 313.765 443.381 317.79C442.527 319.625 440.321 323.293 438.416 326.045C436.508 328.745 434.302 332.313 433.451 333.993C430.642 339.75 425.777 344.082 419.205 346.782C417.501 347.496 415.596 348.768 414.893 349.636C413.487 351.316 409.224 353.611 407.42 353.611C406.766 353.611 405.815 353.15 405.211 352.539C403.758 351.062 404.208 349.227 407.219 344.182C412.283 335.724 415.143 326.605 412.685 326.605C410.929 326.656 403.357 339.956 402.555 344.439C402.154 346.579 398.992 354.17 397.438 356.668C395.482 359.876 393.425 361.404 391.118 361.559C389.463 361.608 388.812 361.914 388.059 363.088C385.349 367.062 380.837 370.933 378.929 370.933C377.526 370.933 377.176 370.068 377.176 366.602C377.176 365.125 376.775 363.036 376.322 361.965C375.219 359.316 375.219 347.393 376.322 343.828C377.024 341.533 377.024 341.431 376.173 341.89C374.718 342.707 373.312 344.794 372.409 347.545C371.157 351.316 371.507 358.145 373.163 361.508C375.52 366.399 374.517 372.767 370.704 377.199C368.9 379.239 363.333 382.959 359.368 384.742C356.761 385.913 344.675 390.296 344.021 390.296C343.821 390.296 343.571 389.53 343.469 388.613C343.32 387.747 342.618 384.944 341.916 382.499C340.561 377.913 339.206 367.265 339.758 365.176C340.208 363.29 348.585 354.628 354.404 349.991C357.363 347.647 362.48 343.113 365.788 339.956C373.564 332.413 380.585 326.504 384.799 323.956C387.658 322.224 388.861 321.816 392.322 321.459C397.538 320.848 401.902 319.473 406.967 316.77C411.181 314.479 421.113 307.142 426.178 302.505C431.092 298.019 431.192 298.019 452.259 289.867C457.476 287.831 456.974 286.354 450.955 286.354C446.241 286.354 441.175 287.219 438.717 288.494C437.663 289.002 433.6 290.784 429.687 292.416C425.777 294.099 421.013 296.136 419.105 297.054C414.693 299.09 409.977 300.313 400.747 301.639C390.967 303.116 381.038 305.764 374.566 308.619C371.306 310.096 370.504 309.942 369.4 307.754C368.699 306.327 368.699 306.07 369.45 304.439C369.902 303.422 371.707 301.334 373.463 299.805C375.219 298.225 377.377 295.779 378.227 294.302C380.536 290.53 384.347 285.639 388.761 281.002C391.769 277.794 392.774 276.314 393.476 274.125C396.336 265.056 400.146 261.945 407.671 262.557C414.191 263.119 424.021 265.973 431.996 269.642C437.512 272.188 440.823 273.105 444.383 273.053C447.443 273.053 447.395 273.053 458.427 268.365C477.137 260.417 475.682 261.233 477.037 258.073C477.487 256.953 478.291 253.439 478.741 250.228C479.695 243.602 480.097 242.279 481.701 240.496C482.351 239.782 483.606 237.948 484.508 236.419C486.866 232.445 490.226 228.064 494.039 224.037C497.099 220.727 497.3 220.368 497.3 218.179C497.3 216.394 496.698 214.459 494.89 210.585C492.484 205.442 491.782 202.637 491.181 196.37C490.828 192.448 491.782 190.205 494.942 187.608C496.196 186.588 498.402 184.651 499.807 183.328C501.511 181.696 504.573 179.862 509.237 177.568C517.513 173.494 519.619 171.965 525.587 165.493C530.502 160.194 532.508 158.716 535.82 157.697C537.676 157.137 538.077 156.731 539.329 154.182C541.136 150.462 541.586 148.271 540.534 148.271C539.782 148.271 536.171 150.819 533.663 153.111C532.96 153.722 531.606 154.385 530.602 154.591C529.6 154.793 526.99 156.016 524.836 157.391C522.627 158.768 519.92 160.5 518.717 161.265C517.513 162.028 515.806 162.742 514.854 162.894C512.847 163.2 512.597 162.845 511.093 157.188C510.54 154.997 509.787 152.757 509.538 152.194C509.036 151.277 508.936 151.277 508.183 152.042C507.53 152.705 507.329 154.028 507.229 158.105C507.18 160.959 507.128 163.811 507.08 164.422C507.08 166.308 504.573 168.654 500.058 170.945C496.145 172.934 493.037 175.53 493.037 176.856C493.037 178.028 492.034 177.111 490.98 174.868C489.776 172.322 489.725 170.996 489.977 152.602C490.126 144.245 491.882 125.088 492.785 122.286C493.237 121.011 494.89 117.802 496.546 115.154C498.202 112.503 499.958 109.04 500.407 107.511C502.665 99.6627 506.277 87.994 507.429 84.9369C508.535 81.9313 508.583 81.2683 508.083 79.9967C507.329 78.1624 506.627 78.0592 505.223 79.5878C502.817 82.2877 500.307 88.8624 499.305 95.0254C498.101 102.568 495.594 109.548 494.039 109.548C493.738 109.548 493.137 108.682 492.684 107.611C492.034 106.031 491.982 105.114 492.484 101.651C492.785 99.4076 493.286 93.2934 493.538 88.0962C494.039 78.6191 494.24 77.3962 497.248 66.7478C498.454 62.4163 498.302 58.5967 496.798 56.5055C494.641 53.4483 492.034 49.4253 492.034 49.068C492.034 48.6085 490.378 47.4363 489.676 47.3856C488.47 47.3856 489.023 49.4253 491.532 54.5193C493.838 59.1566 494.039 59.9199 494.039 63.1824C494.039 65.6282 493.437 69.0913 492.082 74.4939C490.98 78.7739 489.877 84.785 489.524 87.8937C489.224 90.9508 488.622 95.6884 488.221 98.3395C487.719 101.445 487.519 105.471 487.619 109.496C487.768 114.897 487.668 115.866 486.917 116.325C485.614 117.191 482.452 115.968 479.796 113.574C475.931 110.108 475.731 109.496 475.983 100.122C476.334 85.7021 476.234 83.971 475.229 82.0335L474.277 80.2508L473.926 82.0335C473.725 83.0023 473.476 90.2362 473.424 98.1341C473.224 114.999 472.974 114.031 479.495 119.228C484.408 123.102 485.112 124.476 484.359 128.45C483.806 131.253 483.405 131.508 482.603 129.673C482.303 128.96 481.749 128.4 481.448 128.4C480.998 128.4 480.947 129.928 481.299 134.616C482.002 144.908 481.801 148.985 480.346 155.048C477.888 165.188 477.787 166.411 479.194 173.39C481.348 183.988 482.654 197.745 482.351 207.376C482.102 216.651 481.5 219.199 478.993 221.285C476.032 223.682 469.162 236.419 467.457 242.636C466.202 247.373 464.346 250.022 460.986 252.062C456.121 255.016 452.511 255.933 446.741 255.679C440.622 255.425 437.814 254.456 431.243 250.533C425.175 246.865 423.519 245.437 422.116 242.585C419.959 238.253 420.007 234.125 422.265 231.631C422.767 231.019 423.419 229.133 423.769 227.248C424.823 220.828 428.536 217.719 436.861 216.293C442.278 215.376 447.544 213.084 450.704 210.231C452.059 209.057 453.663 206.765 455.218 203.708C456.522 201.108 459.782 195.605 462.541 191.531C465.248 187.453 467.457 183.836 467.457 183.531C467.457 182.613 464.947 181.799 463.192 182.105C462.34 182.308 460.837 183.276 459.833 184.345C457.676 186.588 454.216 192.905 453.161 196.574C451.758 201.414 447.644 203.199 443.831 200.599C441.425 198.968 440.172 196.168 440.273 192.345C440.321 188.422 441.625 184.905 444.584 180.625C447.094 177.111 449.4 172.525 449.4 171.099C449.4 169.06 448.197 169.925 444.684 174.462C442.579 177.111 439.871 180.116 438.617 181.188C434.804 184.345 433.5 188.116 434.555 192.805C435.357 196.217 436.308 198.002 439.167 201.314C444.184 207.276 443.181 208.702 432.799 210.739C430.389 211.197 427.582 212.114 426.528 212.779C422.016 215.53 420.561 216.142 418.504 216.19C414.492 216.242 412.986 213.696 413.539 207.682C414.141 201.162 413.84 196.422 412.536 189.287C411.382 183.173 410.728 180.473 408.574 172.728C407.671 169.468 407.52 163.659 408.322 160.754C408.975 158.462 411.731 155.405 413.138 155.405C413.688 155.405 414.541 154.945 415.094 154.334C416.197 153.111 419.606 151.277 422.566 150.311C427.481 148.731 430.341 146.642 431.092 144.245C431.394 143.176 431.344 143.074 430.541 143.38C429.988 143.634 428.335 143.891 426.831 144.042C422.216 144.502 421.715 142.616 425.024 137.725C426.026 136.196 427.18 133.497 427.834 131.051C429.237 125.751 431.595 121.725 435.257 118.362L438.113 115.714L438.064 112.503C438.015 110.719 437.563 107.408 437.11 105.114C436.308 100.988 436.207 98.8994 436.359 88.9111C436.46 83.9194 435.958 80.5565 433.901 70.874C433.3 68.2248 432.848 65.2709 432.848 64.3021C432.848 62.1105 431.796 62.3656 431.192 64.6594C430.943 65.7285 430.991 66.9513 431.344 68.0739C432.145 70.5196 431.644 72.8621 429.787 75.2056C427.834 77.7019 426.831 79.6394 426.831 80.9138C426.831 81.4737 427.582 83.0538 428.536 84.4792C431.693 89.1165 431.996 93.3965 429.739 102.159C429.187 104.402 428.685 107.968 428.636 110.057C428.585 114.591 427.633 115.356 425.826 112.351C422.867 107.511 420.308 109.802 420.308 117.445C420.308 120.808 417.802 131.813 415.243 139.762C413.387 145.419 411.631 147.865 407.92 149.902C404.56 151.788 401.953 152.145 399.744 150.971C398.791 150.462 397.739 149.494 397.438 148.782C396.336 146.437 393.124 131.813 392.672 126.922C391.468 114.848 391.267 116.833 394.628 108.273C395.232 106.745 395.433 104.351 395.482 98.3395C395.482 90.797 395.533 90.2878 396.886 87.1284C400.246 79.3337 400.346 78.7223 400.547 70.3142C400.598 65.9826 400.899 61.0425 401.2 59.3591C401.801 55.9456 401.902 48.9142 401.452 46.4169C401 44.1766 399.443 43.4114 398.089 44.7364C397.287 45.602 396.986 46.8764 396.585 51.5653C396.336 54.7228 395.934 57.8305 395.682 58.442C395.032 60.174 393.525 59.8683 391.869 57.7799C388.36 53.2448 386.454 51.7679 379.934 48.6085C373.163 45.3479 372.159 45.1941 372.159 47.591C372.159 49.1683 373.715 50.4428 378.579 52.9907C382.943 55.2826 384.698 56.965 384.698 58.8509C384.698 60.431 386.203 62.2137 389.864 64.862C395.834 69.1936 395.983 70.5196 390.667 71.131C386.956 71.537 386.904 72.1485 390.217 76.1227C393.023 79.434 393.826 80.7085 393.376 81.2196C392.723 81.8797 389.314 81.4737 384.847 80.1477C377.978 78.1108 377.577 79.028 382.541 85.6505C383.946 87.4342 385.401 89.6248 385.851 90.4397C387.005 92.7335 387.357 98.0338 386.704 102.925C386.354 105.319 385.75 110.159 385.249 113.726C384.297 121.063 383.645 122.388 381.439 121.368C380.737 121.063 376.422 117.139 371.858 112.757C363.582 104.76 359.468 101.397 355.105 99.1019C353.851 98.4398 351.697 96.7078 350.241 95.1792C346.178 90.8992 340.661 83.0538 339.758 80.2508C337.954 74.748 334.792 69.805 333.038 69.805C332.035 69.805 331.433 71.9966 331.783 74.2369C332.385 78.365 332.485 79.9967 332.184 79.9967C331.935 79.9967 330.531 78.9248 329.024 77.6513C325.716 74.8999 322.003 72.8621 320.247 72.8621C317.339 72.8621 315.983 74.8999 317.891 76.5307C318.341 76.9396 320.647 78.3134 322.957 79.5362C325.314 80.7591 327.922 82.5427 328.724 83.4599C329.577 84.377 330.93 85.7537 331.783 86.517C337.653 91.9683 341.062 95.5365 343.371 98.694C346.227 102.568 346.58 102.77 356.61 107.408C358.417 108.223 360.572 109.651 361.376 110.568C362.227 111.485 365.387 114.897 368.447 118.159C374.466 124.579 375.571 126.056 376.823 129.217C377.225 130.336 379.531 135.839 381.94 141.394C385.449 149.494 386.904 152.348 389.514 155.814C393.075 160.5 394.831 163.711 395.682 166.868C396.536 170.182 397.687 185.925 397.988 197.951C398.089 204.117 398.441 210.537 398.691 212.216C398.943 213.899 399.544 217.67 399.945 220.625C400.398 223.579 401.048 226.788 401.351 227.759C402.254 230.305 402.053 238.253 401.1 240.599C399.744 243.908 399.194 243.35 396.685 236.062C390.417 218.076 390.466 218.179 390.767 212.114C390.867 210.027 388.66 207.174 384.948 204.573C381.238 201.977 380.737 202.69 383.243 206.868C387.406 213.948 391.118 229.642 389.764 234.737C389.162 237.082 387.558 238.559 386.252 238.099C384.097 237.336 382.091 234.227 381.487 230.662C381.287 229.642 380.585 227.656 379.984 226.33C379.33 225.007 377.726 221.285 376.422 218.076C375.168 214.865 373.614 211.402 373.062 210.433C371.959 208.499 370.403 203.35 368.647 195.657C368.046 193.008 366.742 188.168 365.739 184.957C364.135 179.608 363.734 178.893 361.425 176.551C359.52 174.613 357.816 173.545 354.856 172.271C352.647 171.405 350.393 170.436 349.791 170.182C348.336 169.571 344.523 164.271 341.764 159.022C340.461 156.628 338.805 153.622 338.103 152.348C335.797 148.477 335.496 146.845 335.044 137.571C334.743 131.305 334.342 127.994 333.74 126.362C333.287 125.088 332.837 122.439 332.786 120.451C332.686 116.377 332.385 115.662 330.981 115.662C329.778 115.662 327.019 118.26 327.019 119.382C327.019 119.788 327.922 121.011 328.973 122.134C332.236 125.393 332.537 127.891 331.181 138.488C330.38 144.756 330.228 145.265 329.176 145.52C327.219 146.031 325.214 144.756 323.005 141.596C321.851 139.965 320.748 138.591 320.498 138.591C319.946 138.591 318.995 141.902 318.995 143.788C318.995 146.031 317.691 146.896 314.781 146.591C312.374 146.385 312.073 146.182 307.959 141.751C304.599 138.082 303.293 137.01 301.688 136.602C297.377 135.482 295.971 133.291 294.417 125.037C293.816 121.98 292.762 118.211 292.06 116.682C289.25 110.465 288.8 106.796 288.648 90.9508C288.599 77.7019 288.347 75.411 286.542 71.1797C284.987 67.4624 282.629 69.7028 283.784 73.7793C284.987 78.1108 285.488 83.7656 285.288 90.6967C285.139 96.3505 284.887 98.0338 284.285 98.694C283.835 99.1535 283.131 99.357 282.729 99.2051C282.328 99.0513 280.824 96.5053 279.42 93.5991C276.863 88.251 276.109 87.3826 274.857 88.1478C274.003 88.657 275.408 92.274 278.919 98.6453C282.681 105.371 285.892 112.402 285.892 113.879C285.892 114.591 286.193 115.814 286.594 116.579C288.047 119.483 288.047 120.196 286.694 120.757C285.038 121.368 285.038 122.745 286.594 125.242C287.296 126.26 288.748 129.317 289.903 131.968C292.713 138.642 294.767 141.342 298.328 143.074C299.884 143.839 302.643 145.725 304.447 147.151C309.864 151.582 312.173 152.451 319.545 152.805C325.314 153.111 326.017 153.213 327.922 154.539C332.686 157.697 334.491 162.794 331.734 165.034C329.927 166.462 326.417 166.411 320.599 164.882C318.04 164.219 315.884 163.863 315.734 164.068C315.483 164.525 319.997 168.654 321.802 169.571C323.808 170.639 327.721 170.742 332.035 169.925C334.39 169.468 337.601 169.008 339.157 168.805C341.864 168.551 342.065 168.602 342.518 169.773C342.767 170.436 345.827 174.613 349.287 179.097C354.653 186.028 355.607 187.505 355.607 189.033C355.607 192.09 356.56 194.485 359.468 198.765C362.98 204.013 363.634 205.645 363.634 209.11C363.634 215.325 364.837 219.299 370.355 230.816C376.924 244.573 377.726 247.834 375.72 251.857C375.219 252.876 373.614 254.813 372.159 256.137C370.054 258.073 369.051 259.653 366.542 264.902C364.886 268.419 362.781 272.339 361.878 273.616C360.975 274.887 358.767 278.711 356.962 282.176C355.105 285.587 352.197 290.225 350.441 292.416C347.331 296.287 342.116 303.982 339.357 308.873C336.699 313.51 330.88 318.962 328.523 318.962C327.368 318.962 326.517 316.822 326.517 313.917C326.517 311.676 326.718 311.267 328.423 309.79C329.425 308.925 331.382 307.448 332.786 306.579C336.298 304.287 337.553 302.199 337.553 298.631C337.553 294.914 339.157 291.499 343.019 286.708C344.623 284.67 346.479 282.022 347.081 280.799C347.683 279.576 349.539 276.825 351.195 274.685C354.956 269.947 356.813 265.973 358.417 259.499C360.975 249.005 360.923 240.699 358.366 234.942C356.06 229.899 355.558 226.688 355.157 214.56C354.704 202.231 354.103 198.968 352.247 199.327C350.894 199.58 349.087 203.759 348.737 207.479C348.536 210.128 348.685 211.605 349.539 214.511C350.493 217.67 350.693 219.656 350.842 228.216C350.943 236.216 351.143 238.662 351.846 240.393C353.602 244.776 352.347 249.311 347.583 255.831C345.526 258.736 344.976 259.194 343.62 259.194C340.561 259.194 339.507 260.979 337.954 269.03C336.951 274.073 336.8 274.022 327.32 264.697C322.704 260.164 321.55 256.19 323.507 251.808C324.209 250.176 324.36 249.311 324.008 248.393C323.458 246.865 322.957 246.813 321.851 248.036C319.997 250.125 318.493 254.456 318.493 257.819V261.082L324.962 267.501C330.328 272.747 331.534 274.174 331.783 275.756C332.236 278.201 331.382 280.799 329.526 282.481C328.672 283.193 328.022 284.059 328.022 284.316C328.022 284.621 327.019 284.825 325.816 284.825C322.856 284.825 322.003 285.996 322.003 290.071C322.003 293.282 321.502 293.842 319.244 293.282C318.341 293.028 317.94 292.517 317.691 291.041C316.585 284.568 314.127 274.939 310.518 262.456C307.057 250.585 306.304 239.934 308.361 232.854C308.962 230.762 309.615 227.399 309.764 225.465C310.065 221.897 309.864 220.879 307.707 215.019C306.605 212.013 306.605 205.848 307.707 197.799L308.561 191.531L307.207 189.491C304.648 185.517 303.545 187.403 302.19 197.745C301.789 201.21 301.287 204.471 301.138 204.982C300.987 205.442 299.935 206.359 298.78 206.917C294.017 209.362 293.765 210.791 297.678 213.031C301.64 215.273 303.444 217.262 303.444 219.247C303.396 221.693 302.643 225.211 301.989 225.871C301.138 226.739 299.182 224.496 296.372 219.504C294.668 216.394 293.765 215.224 292.913 215.122C290.604 214.765 290.604 216.496 292.913 225.211C294.718 232.191 294.818 232.548 295.42 239.73C296.524 252.827 298.228 265.056 301.187 281.768L301.488 283.551L299.783 281.665C297.878 279.473 293.515 271.728 291.708 267.245C290.957 265.259 290.303 262.151 289.952 258.33C289.201 250.585 288.047 243.962 286.895 240.445C285.591 236.522 285.087 234.279 283.935 226.128C282.529 216.7 281.426 211.91 280.374 210.687C277.112 206.917 276.762 199.022 279.42 190.205C280.374 187.147 280.374 186.842 279.621 185.671C278.667 184.194 278.117 184.396 277.716 186.385C277.564 187.147 277.012 188.37 276.461 189.033L275.507 190.256L274.605 188.831C274.103 188.065 273.201 185.416 272.6 182.971C271.946 180.525 271.043 177.825 270.543 177.008C269.087 174.817 269.339 169.671 271.244 162.282C272.147 158.92 272.849 155.151 272.849 153.876C272.849 150.513 271.697 145.52 269.138 137.928C267.884 134.259 266.68 130.285 266.38 129.165C266.079 128.042 264.675 125.037 263.168 122.54C259.86 116.783 258.906 114.388 258.504 110.719C258.155 107.713 256.648 103.943 255.797 103.943C253.941 103.943 254.995 115.968 257.302 120.757C257.752 121.725 258.504 123.611 258.906 124.937L259.659 127.331L257.752 128.654C254.795 130.59 255.245 131.405 259.808 132.476C264.123 133.497 264.323 133.648 264.323 136.705C264.323 138.183 265.025 142.105 265.827 145.468C266.68 148.831 267.334 152.042 267.334 152.602C267.334 154.285 265.927 155.862 264.123 156.168C260.461 156.882 257.25 153.519 254.995 146.591C254.293 144.297 253.239 141.596 252.738 140.628C251.884 138.999 249.678 132.017 247.973 125.445C247.572 123.968 247.169 121.113 246.968 119.076C246.819 117.037 246.418 113.574 246.017 111.33C245.616 109.088 245.063 104.045 244.711 100.122C244.41 96.1995 243.508 89.0649 242.706 84.2251C240.599 71.4367 240.449 69.1936 241.452 66.6456C242.054 65.0167 242.857 64.0996 244.611 62.977C254.442 56.8112 261.315 51.3083 261.315 49.6279C261.315 48.8139 259.76 47.8968 258.456 47.8968C258.004 47.8968 255.847 49.731 253.74 51.9714C251.632 54.2136 249.527 56.0479 249.077 56.0479C247.973 56.0479 246.819 54.0598 246.367 51.4106C246.166 50.1877 245.765 49.2706 245.513 49.3737C245.212 49.474 244.51 51.614 243.909 54.2136C242.806 58.6455 241.653 61.0912 240.349 61.5507C240.048 61.6539 239.195 61.1428 238.492 60.431C237.44 59.3591 237.289 58.9025 237.64 57.4742C237.841 56.5571 237.991 53.6021 237.991 50.9539C237.991 42.9022 235.935 41.2714 231.671 45.8571L229.314 48.405L228.01 47.2853C224.901 44.5339 226.004 40.3542 232.023 32.0484C235.835 26.7509 238.242 21.6054 239.245 16.6624C240.148 12.0767 239.094 9.32523 237.841 12.9422C237.489 13.9109 236.838 14.8281 236.336 15.0306C234.029 15.9478 229.816 6.93111 230.367 2.24222C230.568 0.153812 230.518 0 229.415 0C228.762 0 228.01 0.459526 227.709 0.967775Z" fill="white"/>
</svg>
