<svg width="36" height="36" viewBox="0 0 36 36" fill="none" xmlns="http://www.w3.org/2000/svg">
<path fill-rule="evenodd" clip-rule="evenodd" d="M6.10482 1.95834C5.29941 1.95834 4.64648 2.61127 4.64648 3.41668V32.5833C4.64648 33.3888 5.29941 34.0417 6.10482 34.0417C6.91023 34.0417 7.56315 33.3888 7.56315 32.5833V20.3309C8.24276 19.9925 9.31713 19.5209 10.4689 19.233C12.5348 18.7166 14.1927 18.9072 15.0998 20.2677C16.7929 22.8073 20.0264 23.031 22.5149 22.7831C25.1409 22.5214 27.7389 21.6614 29.0523 21.1757C30.2063 20.749 30.8965 19.6532 30.8965 18.497V8.84659C30.8965 6.58413 28.5016 5.26328 26.5928 6.1289C25.0449 6.8309 22.9885 7.61485 21.1302 7.87378C19.1859 8.1447 18.0567 7.77811 17.5265 6.98294C15.6133 4.11322 12.34 3.77347 9.99411 3.96896C9.09353 4.04402 8.25672 4.20149 7.56315 4.36822V3.41668C7.56315 2.61127 6.91023 1.95834 6.10482 1.95834ZM7.56315 7.3849V17.1319C8.20603 16.8694 8.95755 16.6044 9.76155 16.4034C12.0707 15.8262 15.5169 15.6356 17.5265 18.6497C18.2244 19.6966 19.8328 20.1191 22.2257 19.8808C24.4445 19.6597 26.7289 18.9218 27.9798 18.4626V8.84659C27.9798 8.78034 27.8458 8.76326 27.7975 8.78518C26.1678 9.52423 23.8084 10.4454 21.5327 10.7625C19.343 11.0677 16.62 10.8812 15.0998 8.60088C14.0963 7.09582 12.2654 6.70647 10.2363 6.87555C9.20239 6.96172 8.24021 7.18831 7.56315 7.3849Z" fill="white"/>
</svg>
