<svg width="15" height="15" viewBox="0 0 15 15" fill="none" xmlns="http://www.w3.org/2000/svg">
<path d="M4.90193 12.6237C6.16987 13.3746 6.80387 13.75 7.5 13.75C8.19613 13.75 8.83013 13.3746 10.0981 12.6237L10.5269 12.3697C11.7949 11.6188 12.4289 11.2434 12.7769 10.625C13.125 10.0066 13.125 9.25575 13.125 7.75394M13.0092 5C12.9579 4.76724 12.8838 4.56487 12.7769 4.375C12.4289 3.75661 11.7949 3.38117 10.5269 2.63029L10.0981 2.37632C8.83013 1.62544 8.19613 1.25 7.5 1.25C6.80387 1.25 6.16987 1.62544 4.90193 2.37632L4.47307 2.63029C3.20513 3.38117 2.57115 3.75661 2.22308 4.375C1.875 4.99339 1.875 5.74427 1.875 7.24606V7.75394C1.875 9.25575 1.875 10.0066 2.22308 10.625C2.36454 10.8763 2.55322 11.0875 2.8125 11.3001" stroke="black" stroke-linecap="round"/>
<path d="M7.5 9.375C8.53553 9.375 9.375 8.53553 9.375 7.5C9.375 6.46447 8.53553 5.625 7.5 5.625C6.46447 5.625 5.625 6.46447 5.625 7.5C5.625 8.53553 6.46447 9.375 7.5 9.375Z" stroke="black"/>
</svg>
