<svg width="94" height="35" viewBox="0 0 94 35" fill="none" xmlns="http://www.w3.org/2000/svg">
<path d="M17.4805 18.1641C17.4805 19.8216 17.2702 21.3184 16.8496 22.6543C16.4538 23.9655 15.9219 25.0417 15.2539 25.8828C14.5859 26.8477 13.7201 27.5775 12.6562 28.0723C11.6172 28.5671 10.5039 28.8145 9.31641 28.8145C7.70833 28.8145 6.32292 28.2207 5.16016 27.0332V34.3438H0.484375V8.18164H5.16016V9.74023C6.32292 8.4043 7.64648 7.73633 9.13086 7.73633C10.5163 7.73633 11.7533 8.05794 12.8418 8.70117C13.9551 9.3444 14.8457 10.1484 15.5137 11.1133C16.1569 12.0781 16.6393 13.1543 16.9609 14.3418C17.3073 15.5293 17.4805 16.8034 17.4805 18.1641ZM12.6934 18.3496C12.6934 17.3848 12.5697 16.4941 12.3223 15.6777C12.0996 14.8366 11.8027 14.1068 11.4316 13.4883C11.0358 12.9193 10.6152 12.4987 10.1699 12.2266C9.74935 11.9297 9.32878 11.7812 8.9082 11.7812C8.53711 11.7812 8.11654 11.9421 7.64648 12.2637C7.20117 12.5605 6.80534 12.9811 6.45898 13.5254C6.06315 14.1439 5.75391 14.8613 5.53125 15.6777C5.30859 16.4941 5.19727 17.3848 5.19727 18.3496C5.19727 19.2897 5.30859 20.168 5.53125 20.9844C5.75391 21.776 6.06315 22.4935 6.45898 23.1367C6.80534 23.7057 7.20117 24.1387 7.64648 24.4355C8.0918 24.7077 8.51237 24.8438 8.9082 24.8438C9.32878 24.8438 9.76172 24.7077 10.207 24.4355C10.6771 24.1634 11.0853 23.7428 11.4316 23.1738C11.8027 22.5306 12.0996 21.8008 12.3223 20.9844C12.5697 20.168 12.6934 19.2897 12.6934 18.3496ZM35.3034 28.5547H29.4772L23.0202 21.0586V28.5547H18.3444V0.240234H23.0202V14.416L29.1803 8.18164H35.192L25.8034 17.4219L35.3034 28.5547ZM49.871 28.5547H45.0839V0.240234H49.871V28.5547ZM57.0064 5.6582H51.6998V0.240234H57.0064V5.6582ZM56.7837 28.5547H51.9966V8.18164H56.7837V28.5547ZM74.7922 28.5547H70.0793V15.9375C70.0793 14.5768 69.8072 13.4883 69.2629 12.6719C68.8918 12.1771 68.2857 11.9297 67.4445 11.9297C66.7271 11.9297 66.0096 12.3379 65.2922 13.1543C64.5747 13.9707 64.0428 15.2448 63.6965 16.9766C63.5975 17.3971 63.5233 17.8177 63.4738 18.2383C63.4491 18.6589 63.4367 19.1536 63.4367 19.7227V28.5547H58.7609V8.18164H63.4367V9.88867C63.9068 9.24544 64.55 8.72591 65.3664 8.33008C66.1828 7.93424 66.9374 7.73633 67.6301 7.73633C69.9061 7.73633 71.6626 8.35482 72.8996 9.5918C74.1613 10.8783 74.7922 12.7214 74.7922 15.1211V28.5547ZM93.5799 28.5547H87.7538L81.2967 21.0586V28.5547H76.6209V0.240234H81.2967V14.416L87.4569 8.18164H93.4686L84.0799 17.4219L93.5799 28.5547Z" fill="white"/>
</svg>
